<svg fill="#000000" xmlns="http://www.w3.org/2000/svg"  viewBox="0 0 50 50" width="50px" height="50px"><path d="M 23.5 4 C 11.637577 4 2 13.637577 2 25.5 C 2 37.362423 11.637577 47 23.5 47 C 27.096938 47 30.487233 46.103568 33.464844 44.542969 L 34 44.261719 L 34 44.125 C 40.622897 40.222073 45.552854 33.52555 48.914062 25.904297 A 1.0001 1.0001 0 0 0 48.923828 25.117188 C 45.789717 17.549049 40.861284 10.80043 34 6.859375 L 34 6.7382812 L 33.464844 6.4570312 C 30.487233 4.8964319 27.096938 4 23.5 4 z M 23.5 6 C 26.562138 6 29.422087 6.7655258 32 8.0234375 L 32 17.806641 C 29.897137 15.481097 26.876481 14 23.5 14 C 17.160562 14 12 19.160562 12 25.5 C 12 31.839438 17.160562 37 23.5 37 C 26.876481 37 29.897137 35.518903 32 33.193359 L 32 42.976562 C 29.422087 44.234474 26.562138 45 23.5 45 C 12.718423 45 4 36.281577 4 25.5 C 4 14.718423 12.718423 6 23.5 6 z M 34 9.3378906 C 39.710995 12.997768 44.039414 18.796065 46.882812 25.490234 C 43.840187 32.238784 39.501511 38.000349 34 41.626953 L 34 25.535156 L 34 25.464844 L 34 9.3378906 z M 23.5 16 C 27.24261 16 30.4485 18.167616 32 21.302734 L 32 29.697266 C 30.4485 32.832384 27.24261 35 23.5 35 C 18.241438 35 14 30.758562 14 25.5 C 14 20.241438 18.241438 16 23.5 16 z"/></svg>