<?xml version="1.0" encoding="UTF-8"?>
<svg xmlns="http://www.w3.org/2000/svg" xmlns:xlink="http://www.w3.org/1999/xlink" width="446px" height="48px" viewBox="0 0 446 48" version="1.1">
<g id="surface1">
<path style=" stroke:none;fill-rule:nonzero;fill:rgb(0%,0%,0%);fill-opacity:1;" d="M 39.824219 18.988281 L 26.84375 18.988281 L 26.84375 1.015625 L 0 1.015625 L 0 47.992188 L 26.84375 47.992188 L 26.84375 29.8125 L 39.824219 29.8125 L 39.824219 47.992188 L 66.667969 47.992188 L 66.667969 1.015625 L 39.824219 1.015625 Z M 110.382812 32.40625 C 110.382812 35.652344 108.4375 39.332031 103.671875 39.332031 C 98.910156 39.332031 96.964844 35.652344 96.964844 32.40625 L 96.964844 1.015625 L 70.128906 1.015625 L 70.128906 32.835938 C 70.128906 37.601562 74.246094 47.992188 89.605469 47.992188 L 117.742188 47.992188 C 133.109375 47.992188 137.21875 37.601562 137.21875 32.835938 L 137.21875 1.015625 L 110.382812 1.015625 Z M 182.027344 20.066406 L 171.417969 1.015625 L 140.6875 1.015625 L 140.6875 47.992188 L 165.359375 47.992188 L 165.359375 27.863281 L 176.394531 47.992188 L 187.65625 47.992188 L 198.691406 27.863281 L 198.691406 47.992188 L 223.363281 47.992188 L 223.363281 1.015625 L 192.632812 1.015625 Z M 268.171875 20.066406 L 257.558594 1.015625 L 226.832031 1.015625 L 226.832031 47.992188 L 251.503906 47.992188 L 251.503906 27.863281 L 262.539062 47.992188 L 273.796875 47.992188 L 284.832031 27.863281 L 284.832031 47.992188 L 309.511719 47.992188 L 309.511719 1.015625 L 278.777344 1.015625 Z M 312.96875 47.992188 L 365.351562 47.992188 L 365.351562 35.007812 L 340.679688 35.007812 L 340.679688 29.8125 L 365.351562 29.8125 L 365.351562 18.988281 L 340.679688 18.988281 L 340.679688 14.007812 L 365.351562 14.007812 L 365.351562 1.015625 L 312.96875 1.015625 Z M 436.34375 16.601562 C 436.34375 10.761719 432.664062 1.015625 422.273438 1.015625 L 368.8125 1.015625 L 368.8125 47.992188 L 395.648438 47.992188 L 395.648438 34.359375 L 407.121094 47.992188 L 440.234375 47.992188 L 426.167969 31.320312 C 431.792969 31.542969 436.34375 22.453125 436.34375 16.601562 Z M 403.011719 22.667969 L 395.648438 22.667969 L 395.648438 12.0625 L 403.875 12.0625 C 410.585938 12.0625 409.9375 22.667969 403.011719 22.667969 Z M 440.714844 0.0078125 C 437.820312 0.0078125 435.476562 2.351562 435.476562 5.246094 C 435.476562 8.140625 437.820312 10.484375 440.714844 10.484375 C 443.605469 10.484375 445.949219 8.140625 445.949219 5.246094 C 445.949219 2.351562 443.605469 0.0078125 440.714844 0.0078125 Z M 440.714844 9.613281 C 439.558594 9.625 438.449219 9.164062 437.640625 8.335938 C 436.835938 7.507812 436.402344 6.390625 436.441406 5.234375 C 436.410156 4.085938 436.847656 2.972656 437.652344 2.152344 C 438.460938 1.332031 439.5625 0.875 440.714844 0.886719 C 441.855469 0.882812 442.953125 1.34375 443.753906 2.164062 C 444.550781 2.984375 444.984375 4.089844 444.953125 5.234375 C 444.992188 6.382812 444.5625 7.496094 443.761719 8.324219 C 442.960938 9.148438 441.863281 9.613281 440.714844 9.613281 Z M 440.714844 9.613281 "/>
<path style=" stroke:none;fill-rule:nonzero;fill:rgb(0%,0%,0%);fill-opacity:1;" d="M 443.121094 3.941406 C 443.121094 2.75 442.414062 2.226562 440.988281 2.226562 L 438.695312 2.226562 L 438.695312 8.265625 L 439.613281 8.265625 L 439.613281 5.648438 L 440.667969 5.648438 L 442.261719 8.265625 L 443.285156 8.265625 L 441.558594 5.605469 C 442.4375 5.496094 443.121094 5.027344 443.121094 3.941406 Z M 439.605469 4.871094 L 439.605469 3.003906 L 440.851562 3.003906 C 441.492188 3.003906 442.167969 3.140625 442.167969 3.886719 C 442.167969 4.820312 441.476562 4.871094 440.699219 4.871094 Z M 439.605469 4.871094 "/>
</g>
</svg>
