<?xml version="1.0" encoding="UTF-8"?>
<svg xmlns="http://www.w3.org/2000/svg" xmlns:xlink="http://www.w3.org/1999/xlink" width="48px" height="48px" viewBox="0 0 48 47" version="1.1">
<g id="surface1">
<rect x="0" y="0" width="48" height="47" style="fill:rgb(100%,100%,100%);fill-opacity:1;stroke:none;"/>
<path style=" stroke:none;fill-rule:evenodd;fill:rgb(0%,0%,0%);fill-opacity:1;" d="M 10.777344 16.15625 C 11.402344 16.148438 12.226562 16.164062 12.671875 16.648438 C 12.933594 16.910156 12.957031 17.328125 12.875 17.6875 C 12.753906 18.15625 12.300781 18.335938 12.035156 18.664062 C 11.992188 21.726562 9.398438 23.933594 7.226562 25.582031 C 6.011719 26.535156 3.992188 27.273438 2.324219 26.519531 C 1.875 26.304688 1.617188 25.835938 1.511719 25.351562 C 1.457031 24.949219 1.480469 24.582031 1.457031 24.1875 C 1.941406 21.972656 3.101562 20.75 4.699219 19.164062 C 5.824219 18.234375 6.796875 17.441406 8.109375 16.910156 C 8.976562 16.589844 9.867188 16.171875 10.777344 16.15625 Z M 10.777344 16.15625 "/>
<path style=" stroke:none;fill-rule:evenodd;fill:rgb(0%,0%,0%);fill-opacity:1;" d="M 15.640625 17.503906 C 15.746094 17.496094 15.859375 17.535156 15.933594 17.605469 C 15.949219 17.628906 15.964844 17.664062 15.964844 17.664062 L 15.949219 17.820312 C 14.246094 19.71875 12.972656 21.542969 11.628906 23.503906 C 11.5 23.796875 11.3125 24.148438 11.457031 24.433594 C 11.539062 24.589844 11.667969 24.679688 11.726562 24.804688 L 11.726562 24.886719 C 10.890625 25.386719 9.660156 25.359375 8.621094 25.535156 C 8.484375 25.527344 8.394531 25.503906 8.335938 25.417969 C 8.3125 25.367188 8.304688 25.34375 8.304688 25.335938 C 10.589844 23.527344 12.015625 20.925781 13.582031 18.589844 C 13.597656 18.367188 13.695312 18.242188 13.839844 18.113281 C 14.425781 17.886719 14.992188 17.542969 15.640625 17.503906 Z M 15.640625 17.503906 "/>
<path style=" stroke:none;fill-rule:evenodd;fill:rgb(0%,0%,0%);fill-opacity:1;" d="M 20.15625 17.503906 L 20.503906 17.550781 C 20.59375 17.6875 20.542969 17.886719 20.464844 18.003906 C 19.011719 20.257812 17.042969 22.164062 15.890625 24.6875 C 14.96875 24.972656 14.117188 24.519531 13.304688 25.058594 C 12.972656 25.113281 12.675781 25.042969 12.464844 24.851562 C 12.089844 24.34375 12.097656 23.640625 12.308594 23.058594 C 12.535156 22.441406 12.988281 22.027344 13.324219 21.519531 C 14.285156 20.480469 15.421875 19.648438 16.953125 19.695312 C 17.230469 19.78125 17.539062 19.902344 17.78125 19.75 C 17.984375 19.519531 18.167969 19.335938 18.121094 19.035156 C 18.0625 18.8125 17.863281 18.742188 17.894531 18.503906 C 18.210938 17.988281 18.933594 17.933594 19.515625 17.664062 C 19.742188 17.621094 19.960938 17.566406 20.15625 17.503906 Z M 20.15625 17.503906 "/>
<path style=" stroke:none;fill-rule:evenodd;fill:rgb(100%,100%,100%);fill-opacity:1;" d="M 10.867188 17.535156 L 11.289062 17.535156 C 11.359375 17.542969 11.402344 17.605469 11.425781 17.6875 C 11.425781 17.710938 11.417969 17.75 11.402344 17.765625 C 10.597656 17.980469 9.519531 17.972656 9.082031 18.726562 C 9.066406 18.8125 9.089844 18.925781 9.195312 18.972656 C 9.585938 19.164062 10.078125 19.011719 10.339844 19.386719 C 10.71875 19.917969 10.355469 20.671875 10.128906 21.179688 C 9.878906 21.519531 9.675781 21.859375 9.429688 22.1875 C 8.214844 23.351562 7.074219 24.402344 5.289062 24.480469 C 5.09375 24.457031 4.949219 24.410156 4.8125 24.320312 C 4.4375 23.757812 4.601562 23.011719 4.828125 22.367188 C 5.03125 21.804688 5.332031 21.410156 5.597656 20.972656 C 7 19.28125 8.539062 17.859375 10.867188 17.535156 Z M 10.867188 17.535156 "/>
<path style=" stroke:none;fill-rule:evenodd;fill:rgb(0%,0%,0%);fill-opacity:1;" d="M 33.984375 18.878906 L 34.308594 18.894531 C 34.316406 18.894531 34.316406 18.910156 34.339844 18.925781 L 34.339844 19.195312 C 33.992188 19.566406 33.308594 19.910156 33.253906 20.480469 C 33.253906 20.527344 33.277344 20.566406 33.277344 20.566406 C 33.714844 20.835938 33.933594 21.351562 33.855469 21.894531 C 33.617188 23.136719 32.589844 23.996094 31.578125 24.417969 C 30.945312 24.574219 30.320312 24.519531 29.6875 24.449219 C 29.484375 24.433594 29.28125 24.441406 29.105469 24.375 C 29.046875 24.359375 28.992188 24.304688 28.964844 24.242188 C 28.917969 23.996094 29.113281 23.835938 29.28125 23.703125 C 30.472656 22.296875 31.804688 21.289062 32.117188 19.589844 C 32.589844 19.234375 33.335938 19.074219 33.984375 18.878906 Z M 38.960938 19.164062 L 39.40625 19.179688 C 39.453125 19.203125 39.527344 19.25 39.542969 19.320312 C 39.550781 19.464844 39.542969 19.632812 39.40625 19.710938 C 37.753906 21.074219 36.683594 22.597656 35.800781 24.425781 C 35.773438 24.605469 35.726562 24.789062 35.554688 24.84375 C 35.132812 24.84375 34.65625 24.84375 34.316406 24.640625 C 34.292969 24.613281 34.28125 24.582031 34.28125 24.582031 L 34.308594 24.367188 C 35.425781 22.996094 37.039062 21.84375 37.191406 19.988281 C 37.613281 19.511719 38.335938 19.425781 38.960938 19.164062 Z M 36.332031 19.203125 C 36.511719 19.203125 36.667969 19.289062 36.78125 19.433594 C 36.917969 19.605469 36.949219 19.867188 36.859375 20.066406 C 36.785156 20.269531 36.601562 20.417969 36.382812 20.457031 C 36.15625 20.488281 35.929688 20.402344 35.808594 20.257812 C 35.628906 20.003906 35.695312 19.6875 35.832031 19.464844 C 35.96875 19.304688 36.132812 19.25 36.332031 19.203125 Z M 26.574219 19.671875 C 26.785156 19.671875 27.027344 19.640625 27.160156 19.820312 C 27.335938 20.011719 27.328125 20.296875 27.273438 20.511719 C 26.929688 21.941406 25.519531 22.550781 25.398438 24.109375 C 25.34375 24.234375 25.210938 24.304688 25.066406 24.320312 C 24.765625 24.320312 24.5 24.351562 24.199219 24.28125 C 24.054688 24.234375 23.980469 24.066406 23.933594 23.925781 C 24.257812 22.949219 25.140625 22.394531 25.359375 21.441406 C 25.359375 21.433594 25.34375 21.378906 25.320312 21.378906 C 24.507812 21.886719 24.109375 22.789062 23.503906 23.480469 C 23.332031 23.742188 23.429688 24.132812 23.15625 24.320312 C 22.714844 24.496094 22.246094 24.410156 21.824219 24.328125 C 21.734375 24.273438 21.710938 24.1875 21.710938 24.050781 C 22.34375 23.148438 23.332031 22.464844 23.609375 21.441406 C 23.574219 21.402344 23.558594 21.378906 23.558594 21.359375 C 23.535156 21.328125 23.496094 21.328125 23.445312 21.328125 C 22.472656 22.25 21.988281 23.203125 21.347656 24.242188 C 20.949219 24.480469 20.390625 24.527344 19.910156 24.449219 C 19.902344 24.441406 19.886719 24.433594 19.878906 24.410156 C 20 24.179688 20.164062 23.941406 20.292969 23.710938 C 20.769531 22.886719 21.296875 22.15625 21.816406 21.386719 C 21.929688 21.105469 21.671875 20.804688 21.882812 20.589844 C 22.507812 20.265625 23.285156 19.875 24.070312 19.910156 C 24.890625 19.464844 25.691406 20.296875 26.421875 19.703125 C 26.484375 19.703125 26.535156 19.679688 26.574219 19.671875 Z M 20.480469 19.78125 C 20.8125 19.773438 21.265625 19.8125 21.484375 20.066406 C 21.613281 20.28125 21.484375 20.519531 21.410156 20.671875 C 21.175781 20.894531 21.03125 21.289062 20.691406 21.273438 C 20.527344 21.242188 20.375 21.113281 20.269531 21.257812 C 20.007812 22.480469 20.269531 24.15625 18.859375 24.703125 C 18.121094 25.003906 17.316406 24.613281 16.566406 24.632812 C 16.484375 24.558594 16.449219 24.441406 16.5 24.320312 C 16.816406 23.75 17.132812 23.105469 17.757812 22.710938 C 17.828125 22.710938 17.863281 22.703125 17.917969 22.734375 C 18.128906 22.910156 17.949219 23.304688 18.160156 23.503906 C 18.25 23.582031 18.453125 23.640625 18.589844 23.550781 C 18.851562 23.351562 18.882812 23.042969 18.851562 22.773438 C 18.640625 21.894531 18.550781 20.875 19.320312 20.273438 C 19.652344 20.027344 20.042969 19.84375 20.480469 19.78125 Z M 20.480469 19.78125 "/>
<path style=" stroke:none;fill-rule:evenodd;fill:rgb(0%,0%,0%);fill-opacity:1;" d="M 29.664062 19.917969 C 30.042969 19.917969 30.425781 20.035156 30.652344 20.328125 C 30.917969 20.6875 30.886719 21.195312 30.765625 21.597656 C 29.90625 22.757812 28.789062 24.097656 27.425781 24.550781 C 26.980469 24.65625 26.476562 24.464844 26.175781 24.226562 C 26 24.011719 25.851562 23.726562 25.941406 23.449219 C 26.460938 22.1875 27.289062 20.972656 28.527344 20.328125 C 28.875 20.15625 29.242188 19.957031 29.664062 19.917969 Z M 29.664062 19.917969 "/>
<path style=" stroke:none;fill-rule:evenodd;fill:rgb(100%,100%,100%);fill-opacity:1;" d="M 16.101562 20.886719 L 16.425781 20.933594 C 16.546875 21.113281 16.433594 21.378906 16.335938 21.542969 C 15.792969 22.25 15.332031 23.210938 14.523438 23.695312 C 14.402344 23.699219 14.28125 23.660156 14.191406 23.582031 C 14.011719 23.265625 14.15625 22.828125 14.335938 22.558594 C 14.734375 21.851562 15.339844 21.179688 16.101562 20.886719 Z M 29.257812 21.203125 C 29.355469 21.195312 29.417969 21.265625 29.5 21.304688 C 29.664062 21.542969 29.5 21.828125 29.386719 22.042969 C 29.09375 22.574219 28.617188 23.050781 27.992188 23.226562 C 27.824219 23.234375 27.675781 23.1875 27.597656 23.050781 C 27.484375 22.835938 27.570312 22.589844 27.675781 22.425781 C 28.082031 21.859375 28.542969 21.34375 29.257812 21.203125 Z M 29.257812 21.203125 "/>
<path style=" stroke:none;fill-rule:evenodd;fill:rgb(0%,0%,0%);fill-opacity:1;" d="M 35.492188 21.203125 C 35.621094 21.203125 35.796875 21.1875 35.894531 21.273438 C 35.902344 21.304688 35.929688 21.328125 35.929688 21.328125 C 35.386719 22.480469 34.324219 23.273438 33.871094 24.503906 C 33.503906 24.773438 32.984375 24.625 32.613281 24.648438 C 32.535156 24.628906 32.472656 24.578125 32.441406 24.503906 C 32.96875 23.457031 33.976562 22.71875 34.445312 21.597656 C 34.753906 21.402344 35.140625 21.320312 35.492188 21.203125 Z M 35.492188 21.203125 "/>
<path style=" stroke:none;fill-rule:evenodd;fill:rgb(0%,0%,0%);fill-opacity:1;" d="M 39.949219 21.472656 C 40.257812 21.433594 40.554688 21.589844 40.757812 21.8125 C 40.96875 22.097656 40.882812 22.480469 40.734375 22.765625 C 40.128906 23.488281 39.414062 23.804688 38.496094 24.113281 C 38.488281 24.132812 38.488281 24.152344 38.496094 24.171875 C 38.601562 24.265625 38.773438 24.265625 38.902344 24.210938 C 39.730469 23.871094 40.664062 23.773438 41.382812 24.257812 C 43.492188 25.335938 45.453125 26.441406 47.285156 27.765625 C 47.308594 27.851562 47.285156 27.941406 47.242188 27.980469 C 43.921875 27.6875 40.53125 26.75 37.167969 26.550781 C 36.542969 26.449219 35.921875 26.433594 35.3125 26.335938 C 34.210938 26.265625 33.117188 26.265625 32.039062 26.132812 C 30.148438 26.132812 28.269531 26.050781 26.394531 26.15625 C 21.636719 26.617188 16.808594 27.386719 12.179688 28.988281 C 10.898438 29.472656 9.632812 29.933594 8.335938 30.410156 C 7.777344 30.496094 7.378906 30.871094 6.855469 30.84375 C 6.730469 30.050781 7.371094 29.195312 7.398438 28.378906 L 6.855469 28.503906 C 5.078125 28.6875 3.660156 30.21875 2.023438 29.75 C 1.578125 29.449219 1 29.355469 0.710938 28.910156 C 0.695312 28.828125 0.734375 28.773438 0.75 28.742188 C 1.011719 28.566406 1.375 28.449219 1.699219 28.289062 C 3.085938 27.855469 4.472656 27.574219 5.832031 27.234375 C 10.210938 26.234375 14.578125 25.648438 18.929688 25.417969 C 20.195312 25.386719 21.445312 25.425781 22.691406 25.304688 C 26.339844 25.195312 29.980469 25.164062 33.601562 25.558594 C 37.015625 25.679688 40.453125 26.664062 43.816406 26.75 C 43.863281 26.703125 43.871094 26.703125 43.898438 26.664062 L 43.898438 26.605469 C 42.792969 25.703125 41.585938 25.117188 40.167969 24.542969 C 39.503906 24.863281 38.9375 25.363281 38.058594 25.394531 C 37.589844 25.441406 37.046875 25.367188 36.765625 24.988281 C 36.722656 24.917969 36.691406 24.859375 36.65625 24.804688 C 36.375 24.226562 36.699219 23.613281 36.992188 23.21875 C 37.710938 22.25 38.691406 21.535156 39.949219 21.472656 Z M 39.949219 21.472656 "/>
<path style=" stroke:none;fill-rule:evenodd;fill:rgb(100%,100%,100%);fill-opacity:1;" d="M 32.441406 21.8125 C 32.492188 21.8125 32.566406 21.8125 32.605469 21.84375 C 32.742188 22.242188 32.425781 22.582031 32.257812 22.867188 C 32.117188 23.042969 31.988281 23.148438 31.875 23.289062 C 31.6875 23.441406 31.535156 23.574219 31.285156 23.574219 C 31.25 23.550781 31.226562 23.542969 31.21875 23.527344 C 31.300781 22.902344 31.761719 22.496094 32.175781 21.972656 C 32.289062 21.917969 32.347656 21.851562 32.441406 21.8125 Z M 39.113281 22.582031 L 39.324219 22.597656 C 39.363281 22.613281 39.421875 22.6875 39.40625 22.765625 C 39.234375 22.996094 38.992188 23.132812 38.734375 23.15625 C 38.691406 23.15625 38.667969 23.132812 38.644531 23.109375 C 38.601562 22.957031 38.675781 22.820312 38.789062 22.710938 C 38.878906 22.632812 39.007812 22.613281 39.113281 22.582031 Z M 39.113281 22.582031 "/>
</g>
</svg>
