<?xml version="1.0" encoding="utf-8"?>
<!-- Generator: Adobe Illustrator 25.0.1, SVG Export Plug-In . SVG Version: 6.00 Build 0)  -->
<svg version="1.0" id="katman_1" xmlns="http://www.w3.org/2000/svg" xmlns:xlink="http://www.w3.org/1999/xlink" x="0px" y="0px"
	 viewBox="0 0 560 400" style="enable-background:new 0 0 560 400;" xml:space="preserve">
<style type="text/css">
	.st0{fill-rule:evenodd;clip-rule:evenodd;}
	.st1{fill-rule:evenodd;clip-rule:evenodd;fill:#FFFFFF;}
	.st2{fill:#FFFFFF;}
</style>
<g transform="matrix(.67659514045 0 0 .6765980246 130.00005440056 49.99996066168)">
	<path class="st0" d="M0,221.7C0,99.3,99.3,0,221.7,0s221.7,99.3,221.7,221.7c0,122.4-99.3,221.7-221.7,221.7S0,344.1,0,221.7
		L0,221.7z"/>
	<g>
		<path class="st1" d="M49.6,281.3l-2.3-7.3h13.3c-5.4-16.5-8.3-34.1-8.3-52.4c0-93.5,75.8-169.4,169.4-169.4
			c93.5,0,169.4,75.8,169.4,169.4c0,93.5-75.8,169.4-169.4,169.4c-67.2,0-125.2-39.1-152.6-95.8c-3.5-1.1-5.4-0.5-9.3-0.7
			c-3.8-0.2-7-4.3-7.9-6.8l13.7,0l-2.6-6.5L49.6,281.3z"/>
		<path class="st1" d="M45.8,167.4L35.6,163l9.7-21.9c0.9-2.3-2.9-4-3.8-2l-9.8,22.2l-3.9-1.7L39.1,134c1.1-2.4,3.7-3.4,7.8-1.5
			c4.2,1.9,5.1,3.6,4,6.3l-8.9,19.9l6.2,2.5L45.8,167.4z"/>
		<path class="st1" d="M403.2,129.7l2.2,6l-6,2.7l7.2,17.6l6.1-2.5l2.5,6.2l-17.9,7.5l-2.5-6.2l8-3.3l-7.3-17.9l-7.9,3.4l-2.4-6.3
			L403.2,129.7z"/>
		<path class="st1" d="M374,93.7l8.3,9.5l3.9-3.2l-21.7-24l-4,3.3l9,9.4l-11.2,10.6l4.5,4.9L374,93.7z"/>
		<path class="st1" d="M314.2,39.1l-6.9,10.5c-1.4,2-3.1,7.1,1.3,10.1l21.6,14.5L341.3,57l-5.5-3.6l-8.4,12.7l-12.7-8.7
			c-2-1.3-2.6-3.3-1.3-5.3l6.4-9.5L314.2,39.1z"/>
		<path class="st1" d="M165.9,25.3l3.2,18.9l6.8-1.1L173,28.3l7.7-1.2c1.9-0.4,3.8,0.7,4.1,2.3l1.9,12l6.6-1.1l-2.6-14.9l7.3-1.2
			c2-0.5,4.1,0.7,4.3,2.4l2,12l6.5-1.2l-2.3-13.9c-0.4-2.3-4.3-4.7-7.6-4.2l-12.2,2c-1.2,0.1-1.6,0.9-1.9,1.5
			c-1.1-0.8-2.4-0.9-3.5-0.7L165.9,25.3z"/>
		<path class="st1" d="M74.3,112.2L59.4,98.6l4.4-5.2l11.4,10.3l17.3-19.1l3.6,3.5L74.3,112.2z"/>
		<path class="st1" d="M117.9,59.8l5.4,7.5l5.7-4.2l-5.4-7.3l5.3-3.6c1.8-1.4,4-6.1,2.3-8.8l-4-5.7l-5.6,4l2.7,3.5
			c0.8,1,1,4.2-0.1,5.2L114,57.4c-1.5,1.2-4.1,0.7-5.1-0.7l-2.9-4.2l-5.4,4l4.1,5.5c1.7,2,6.1,2.6,8.9,0.8L117.9,59.8z"/>
		<path class="st1" d="M251,40.2c-3.4-0.7-9.4-0.9-7.1-12.6c1.3-6.9,5.2-8.4,12.5-7.1l13.6,2.4c6,1.1,9.9,2.8,8.5,11.1
			c-1.4,8.2-5.5,10.2-11.5,9.1L251,40.2z"/>
	</g>
	<path class="st0" d="M252.1,35.9c-3-0.6-3.4-2.8-2.7-7.5c0.6-4,3.1-4.4,5.5-3.8l14.6,2.7c2.4,0.6,4.1,2.4,3.4,6s-2.6,6.2-6.2,5.4
		L252.1,35.9z"/>
	<path class="st0" d="M340.3,329.9c3.1-3.4,5.5-6.1,8.3-9.7c-35.4-5.1-88.8-9.4-103.5,24.9c-12.4-9.2-42.6-9.8-50.5-3.8
		c-7.2-6-32.6-10-46.6,1.5c-11.9-12.4-33-37.1-68.9-46.9c14.2,27.3,36,49.9,62.5,65.2c6.4-11.3,32.2-21.9,52-7.9
		c8.7-5.8,36-10,57.1,8.3C251.3,347.2,267.7,316.5,340.3,329.9C340.3,329.9,267.7,316.5,340.3,329.9L340.3,329.9z"/>
	<path class="st0" d="M193.8,359.1c24.3-10.9,47.5,0.6,59.4,12.1c0.5-4.8,4.5-47.7,81.2-35.1c-29,28.6-68.8,46.2-112.7,46.2
		c-27,0-51.3-6.4-73.7-18.2C152.3,356.1,177.4,346.7,193.8,359.1C193.8,359.1,177.4,346.7,193.8,359.1z"/>
	<path class="st0" d="M254.1,64.3c-10.5-2.1-21.3-3.3-32.4-3.3C133,61.1,61.1,133,61.1,221.7c0,14.5,1.9,28.5,5.5,41.9
		c5.2-51.7,35.8-90,52-107.9C137.2,135.1,195.3,86.3,254.1,64.3C254.1,64.3,195.3,86.3,254.1,64.3z"/>
	<path class="st0" d="M233.6,274.1c-6.8-22.2-14.5-83.5,81.8-173l-63.9,173H233.6z"/>
	<path class="st0" d="M263.4,274.1c3-14.1,41.3-18.7,110.8-3.4l-0.4,3.4H263.4z"/>
	<path class="st0" d="M75.6,274.1c3.8-15.8,30.2-19.6,53.2-18.7c23,0.9,65.2,7.2,94.6,18.7H75.6z"/>
	<path class="st0" d="M368.2,287.7l2.6-6.4H72.2l2.1,6.4H368.2z"/>
</g>
<g transform="matrix(.02002880129 0 0 .02002880129 337.07102556 251.066435)">
	<path d="M1657.7,190.4c0,209.4-169.8,379.2-379.2,379.2S899.3,399.9,899.3,190.4c0-209.4,169.8-379.2,379.2-379.2
		S1657.7-19,1657.7,190.4z"/>
	<path class="st2" d="M1594.5,190.4c0,174.5-141.5,316-316,316c-174.5,0-316-141.5-316-316s141.4-316,316-316
		C1453-125.6,1594.5,15.9,1594.5,190.4z"/>
	<path d="M1113,195.9V-8l89.9,0.4c89.5,0.4,96.1,0.5,118.7,3.4c34.3,4.3,54.9,13.2,73.5,31.9c9.4,9.4,15.7,18.5,21.3,30.4
		c7.6,16.2,10.4,28.1,10.3,45.1c0,29-10.3,54.6-30.6,76.1c-21,22.3-44.6,33.4-80.5,37.8l-4.7,0.6l9.1,4.6
		c16,7.9,22.8,13.6,38.5,31.8c15,17.4,29.6,38.4,53.9,77.4c8.9,14.3,21.5,34.6,28,45c6.5,10.4,12.4,19.9,13.2,21.1l1.4,2.2H1415
		h-40.2l-5.4-9.7c-3-5.3-6.7-12-8.3-14.8c-1.6-2.8-4.7-8.3-6.9-12.2c-28.4-50.5-32.8-57.9-44.7-75.8c-18.8-28.3-34.5-44.9-49.2-52.3
		c-12.6-6.4-24.7-8.1-57.5-8.1l-24.3,0v173h-32.8H1113L1113,195.9z"/>
	<path class="st2" d="M1290.8,169.1c17.4-2.3,26.5-4.7,37.1-9.8c4.5-2.2,7.4-4.3,12.2-9.2c11.4-11.5,16.1-22.4,16.8-38.8
		c0.3-8,0.1-10.6-1.3-16.2c-4.2-16.8-14.2-29.3-29.3-36.9c-9.4-4.7-16.7-6.8-30.4-8.6c-7.6-1-20.1-1.3-63.4-1.6l-53.9-0.4V171
		l51.5-0.4C1270.5,170.4,1283.6,170,1290.8,169.1z"/>
</g>
</svg>
