<?xml version="1.0" standalone="no"?>
<!DOCTYPE svg PUBLIC "-//W3C//DTD SVG 20010904//EN"
 "http://www.w3.org/TR/2001/REC-SVG-20010904/DTD/svg10.dtd">
<svg version="1.0" xmlns="http://www.w3.org/2000/svg"
 width="512.000000pt" height="512.000000pt" viewBox="0 0 512.000000 512.000000"
 preserveAspectRatio="xMidYMid meet">

<g transform="translate(0.000000,512.000000) scale(0.100000,-0.100000)"
fill="#000000" stroke="none">
<path d="M3103 4846 c-136 -33 -76 22 -1374 -1275 -1132 -1131 -1209 -1210
-1238 -1272 -60 -129 -64 -276 -10 -398 l20 -45 -251 -251 -250 -250 303 -303
302 -302 245 245 245 245 390 -389 c410 -409 429 -425 550 -457 74 -20 182
-17 258 6 90 28 164 81 287 204 l105 106 222 -222 223 -223 302 303 303 302
-223 223 -222 222 246 245 c309 308 407 417 499 555 164 246 261 505 299 794
l15 115 386 386 385 385 -303 303 -302 302 -185 -185 c-102 -102 -188 -185
-192 -185 -3 0 -28 35 -53 77 -86 142 -157 226 -374 446 -189 191 -225 222
-286 253 -109 53 -213 66 -322 40z m222 -173 c44 -14 74 -39 261 -227 116
-116 239 -248 272 -294 368 -500 434 -1160 172 -1717 -125 -267 -157 -304
-974 -1121 -579 -579 -731 -726 -771 -745 -39 -18 -67 -23 -130 -24 -141 0
-106 -29 -851 717 -631 632 -663 666 -680 718 -24 76 -22 162 6 230 21 50 138
170 1203 1237 833 834 1195 1189 1229 1208 85 46 157 51 263 18z m1295 -1138
c-166 -166 -267 -260 -271 -252 -3 6 -9 46 -13 87 -9 103 -51 285 -92 400
l-34 95 152 152 153 153 185 -185 185 -185 -265 -265z m-3827 -2367 l-188
-188 -187 187 -188 188 187 187 188 188 187 -187 188 -188 -187 -187z m2552
-138 l160 -160 -188 -187 -187 -188 -165 165 -165 165 182 182 c101 101 187
183 193 183 6 0 82 -72 170 -160z"/>
<path d="M3150 4519 c-34 -13 -2346 -2326 -2365 -2365 -19 -40 -19 -97 -1
-132 8 -15 304 -316 658 -668 697 -695 663 -666 752 -643 36 9 122 92 690 657
700 699 796 800 887 936 371 552 333 1297 -92 1811 -85 104 -380 392 -412 405
-35 12 -83 12 -117 -1z m135 -229 l70 -70 -190 -190 -191 -191 -74 70 -75 70
190 190 c104 105 192 191 195 191 3 0 37 -32 75 -70z m250 -257 l55 -67 -182
-183 -183 -183 -65 65 -65 65 185 185 c102 102 188 185 192 185 4 0 33 -30 63
-67z m-266 -696 c303 -285 551 -522 551 -526 0 -5 -12 -44 -26 -87 -47 -144
-139 -313 -235 -433 l-25 -32 -1 148 c0 98 -5 172 -16 218 -92 406 -382 709
-781 817 -68 19 -108 22 -253 23 l-173 0 198 198 c108 108 200 196 204 195 3
-2 254 -236 557 -521z m455 410 c20 -41 36 -80 36 -88 0 -8 -63 -77 -139 -153
l-139 -139 -29 21 c-15 11 -46 39 -68 61 l-39 41 164 165 c91 91 168 165 171
165 4 0 23 -33 43 -73z m121 -387 c8 -52 15 -153 15 -224 l0 -129 -47 43 c-27
24 -85 79 -131 123 l-83 81 108 108 c59 59 111 104 115 100 4 -4 14 -50 23
-102z m-1190 -69 c338 -70 605 -324 692 -659 22 -88 24 -111 20 -242 -6 -160
-19 -221 -73 -340 -31 -67 -53 -93 -202 -243 -183 -185 -215 -207 -369 -254
-79 -24 -103 -27 -243 -27 -119 0 -170 4 -220 18 -263 73 -467 240 -585 479
-66 135 -87 225 -88 382 -1 162 28 288 92 413 30 58 356 375 416 405 162 81
375 106 560 68z m-1229 -878 c0 -138 4 -182 21 -243 90 -326 283 -566 566
-704 172 -85 361 -121 550 -105 45 4 83 6 84 5 1 -1 -109 -113 -245 -249
l-247 -247 -610 610 -610 610 245 245 c135 135 245 245 245 245 0 0 0 -75 1
-167z"/>
<path d="M2375 3140 c-185 -28 -352 -123 -466 -267 -70 -88 -113 -175 -141
-285 -29 -116 -22 -300 15 -406 83 -235 255 -398 497 -473 97 -30 280 -33 380
-5 253 69 443 253 522 506 19 62 23 97 23 205 0 108 -4 143 -23 205 -37 116
-88 204 -170 291 -169 179 -404 264 -637 229z m250 -175 c144 -38 298 -164
363 -299 183 -378 -86 -816 -503 -820 -156 -1 -295 55 -404 163 -225 224 -228
584 -6 804 70 70 168 128 256 151 72 20 220 20 294 1z"/>
<path d="M2411 2649 c-148 -45 -218 -214 -146 -348 79 -145 262 -175 379 -63
52 50 76 104 76 175 0 68 -16 110 -60 161 -61 69 -166 100 -249 75z m127 -185
c30 -34 28 -70 -7 -105 -33 -33 -50 -35 -90 -14 -61 31 -55 118 10 144 32 13
59 5 87 -25z"/>
<path d="M1206 2148 c-54 -49 -25 -138 45 -138 41 0 58 9 74 41 21 40 19 57
-14 90 -35 35 -71 37 -105 7z"/>
<path d="M2095 1245 c-52 -51 -11 -135 66 -135 32 0 69 44 69 83 0 70 -85 103
-135 52z"/>
<path d="M4464 3857 c-35 -31 -37 -77 -4 -112 59 -63 170 11 129 87 -28 53
-80 63 -125 25z"/>
<path d="M570 1427 c-67 -34 -57 -133 15 -151 88 -22 136 107 54 149 -34 18
-37 18 -69 2z"/>
<path d="M3095 938 c-50 -29 -59 -81 -22 -124 60 -69 164 3 131 91 -7 17 -54
45 -76 45 -7 0 -22 -6 -33 -12z"/>
</g>
</svg>
