<?xml version="1.0" standalone="no"?>
<!DOCTYPE svg PUBLIC "-//W3C//DTD SVG 20010904//EN"
 "http://www.w3.org/TR/2001/REC-SVG-20010904/DTD/svg10.dtd">
<svg version="1.0" xmlns="http://www.w3.org/2000/svg"
 width="512.000000pt" height="512.000000pt" viewBox="0 0 512.000000 512.000000"
 preserveAspectRatio="xMidYMid meet">

<g transform="translate(0.000000,512.000000) scale(0.100000,-0.100000)"
fill="#000000" stroke="none">
<path d="M1837 3829 c-307 -35 -593 -161 -841 -368 -137 -115 -289 -308 -371
-470 -18 -36 -158 -374 -310 -750 -214 -525 -276 -688 -268 -700 9 -15 149
-16 1559 -19 1064 -2 1583 0 1659 8 336 33 646 166 913 393 145 123 301 325
376 488 19 41 145 371 281 733 186 494 245 664 238 675 -9 14 -166 16 -1589
17 -868 1 -1610 -2 -1647 -7z m1575 -403 c292 -56 518 -282 574 -574 94 -493
-345 -932 -838 -838 -392 75 -651 457 -572 844 80 389 451 642 836 568z
m-1571 -180 c100 -35 173 -81 249 -156 75 -76 121 -148 158 -252 23 -64 26
-88 26 -198 0 -110 -3 -134 -26 -198 -15 -41 -42 -99 -60 -130 -42 -72 -148
-178 -220 -220 -378 -224 -863 -9 -952 421 -20 96 -20 158 0 254 53 257 255
455 514 504 80 14 232 3 311 -25z"/>
<path d="M3140 3344 c-228 -48 -421 -238 -480 -470 -102 -397 208 -794 620
-794 349 0 640 291 640 640 0 405 -381 710 -780 624z m290 -91 c30 -8 71 -24
92 -34 l38 -19 0 -122 0 -122 -32 31 c-18 18 -58 44 -88 60 -50 25 -65 28
-160 28 -96 0 -110 -2 -158 -28 -72 -38 -138 -106 -170 -175 -23 -49 -27 -70
-27 -152 0 -82 4 -103 27 -152 34 -73 103 -142 176 -176 50 -24 70 -27 157
-27 90 0 105 3 155 28 30 16 70 42 88 60 l32 31 0 -122 0 -122 -38 -19 c-106
-54 -272 -70 -387 -36 -191 55 -334 197 -393 389 -20 67 -20 225 0 292 29 94
79 177 147 245 144 144 343 197 541 142z m-54 -270 c66 -22 145 -101 167 -167
37 -108 13 -211 -67 -292 -114 -113 -278 -113 -392 0 -113 114 -113 278 1 392
80 80 183 104 291 67z"/>
<path d="M1512 3186 c-200 -49 -370 -219 -417 -417 -59 -253 66 -516 299 -629
480 -232 978 266 746 746 -112 231 -381 359 -628 300z m277 -97 c99 -34 101
-37 101 -140 l0 -91 -49 37 c-72 52 -128 68 -219 63 -124 -8 -214 -67 -274
-180 -19 -36 -23 -58 -23 -138 0 -80 4 -102 23 -138 60 -113 150 -172 274
-180 92 -5 147 11 219 64 l50 36 -3 -93 -3 -94 -56 -27 c-118 -57 -267 -55
-394 6 -120 57 -202 148 -247 274 -29 80 -29 224 0 304 45 126 127 216 247
274 114 55 238 63 354 23z m-75 -220 c21 -6 60 -31 87 -56 186 -174 13 -471
-236 -402 -54 15 -139 100 -154 154 -26 94 -7 169 57 237 69 71 150 94 246 67z"/>
</g>
</svg>
