<?xml version="1.0" standalone="no"?>
<!DOCTYPE svg PUBLIC "-//W3C//DTD SVG 20010904//EN"
 "http://www.w3.org/TR/2001/REC-SVG-20010904/DTD/svg10.dtd">
<svg version="1.0" xmlns="http://www.w3.org/2000/svg"
 width="512.000000pt" height="512.000000pt" viewBox="0 0 512.000000 512.000000"
 preserveAspectRatio="xMidYMid meet">

<g transform="translate(0.000000,512.000000) scale(0.100000,-0.100000)"
fill="#000000" stroke="none">
<path d="M3585 4153 c-1076 -54 -2184 -388 -3074 -926 -264 -160 -413 -346
-481 -602 -54 -206 -27 -471 67 -660 77 -152 218 -303 363 -389 111 -66 339
-169 372 -169 52 0 83 53 62 107 -3 9 -92 58 -198 110 -129 64 -212 112 -256
148 -367 303 -386 870 -40 1191 163 151 682 423 1165 610 750 291 1635 450
2415 435 193 -4 235 -8 298 -27 191 -56 357 -179 461 -341 157 -243 269 -862
220 -1216 -97 -700 -833 -1209 -1889 -1305 -161 -14 -524 -7 -685 15 -368 49
-748 137 -1108 257 -81 27 -160 49 -176 49 -56 0 -86 -76 -46 -120 27 -30 435
-160 690 -220 455 -107 783 -146 1145 -137 489 13 896 107 1285 297 519 253
822 605 922 1070 22 104 25 435 4 600 -31 261 -106 542 -186 702 -112 222
-309 396 -539 474 -134 46 -209 54 -480 52 -138 -1 -278 -3 -311 -5z"/>
<path d="M3600 3914 c-1102 -71 -2082 -366 -2965 -892 -196 -116 -321 -269
-371 -452 -24 -89 -25 -272 -1 -360 31 -116 93 -227 177 -311 85 -85 163 -135
339 -215 514 -232 1099 -395 1671 -466 162 -20 584 -17 750 5 573 77 1043 280
1341 578 156 157 258 331 308 529 68 270 12 795 -119 1126 -84 209 -244 360
-458 432 -74 25 -86 26 -347 28 -148 0 -295 0 -325 -2z m588 -159 c132 -31
260 -118 336 -228 67 -97 135 -301 170 -512 15 -86 40 -355 34 -360 -2 -2 -54
-10 -116 -19 -567 -83 -1022 -527 -1107 -1082 -10 -60 -18 -114 -20 -120 -3
-10 -162 -42 -330 -66 -56 -8 -191 -13 -355 -13 -290 1 -427 15 -733 75 -461
92 -989 268 -1342 448 -133 68 -211 141 -268 249 -64 122 -80 243 -52 378 37
174 129 284 345 410 833 488 1796 780 2785 844 230 15 582 13 653 -4z m529
-1313 c-36 -341 -338 -674 -793 -871 -92 -40 -274 -104 -280 -99 -7 7 27 165
50 236 58 172 150 318 286 453 197 194 455 314 729 338 11 1 13 -11 8 -57z"/>
<path d="M3726 3695 c-241 -66 -415 -295 -416 -546 0 -71 32 -196 67 -262 41
-78 165 -197 243 -235 220 -108 472 -67 647 104 72 70 98 120 83 158 -21 55
-89 62 -128 14 -121 -148 -257 -207 -414 -180 -259 45 -411 308 -319 553 42
109 130 195 249 239 47 18 73 21 153 18 83 -3 104 -8 161 -36 124 -61 208
-178 227 -317 11 -78 32 -105 82 -105 67 0 86 71 54 194 -48 185 -196 339
-379 395 -80 25 -231 27 -310 6z"/>
<path d="M3790 3405 c-102 -32 -180 -138 -180 -244 0 -76 18 -125 64 -178 125
-142 341 -118 430 47 70 130 18 293 -116 361 -51 26 -141 33 -198 14z m156
-166 c82 -77 33 -199 -79 -199 -54 0 -107 52 -107 104 0 104 114 163 186 95z"/>
<path d="M2221 3399 c-161 -31 -325 -123 -442 -246 -148 -155 -222 -345 -221
-568 2 -370 244 -683 608 -787 111 -32 306 -32 416 0 304 87 521 309 595 610
24 99 22 284 -6 387 -80 298 -310 524 -606 596 -86 20 -260 25 -344 8z m323
-159 c189 -48 346 -177 436 -358 47 -95 64 -174 63 -297 0 -90 -5 -125 -26
-190 -61 -187 -184 -328 -359 -410 -184 -86 -389 -84 -573 5 -238 115 -378
340 -377 605 1 119 18 191 71 300 84 170 253 304 440 350 86 21 234 18 325 -5z"/>
<path d="M2253 3085 c-227 -61 -382 -261 -383 -490 0 -283 224 -508 505 -508
189 1 345 90 442 253 64 107 82 275 43 402 -78 254 -355 410 -607 343z m281
-174 c72 -35 131 -94 167 -169 20 -40 24 -63 24 -147 0 -87 -3 -107 -26 -155
-66 -141 -229 -228 -376 -201 -121 23 -229 105 -275 209 -32 71 -36 191 -9
264 29 75 78 138 140 178 74 47 124 60 213 57 62 -3 89 -10 142 -36z"/>
<path d="M859 2777 c-102 -43 -173 -110 -218 -206 -23 -49 -26 -68 -26 -161 0
-99 2 -110 32 -171 77 -155 247 -245 415 -218 163 26 288 144 324 307 14 64
15 85 5 141 -25 132 -110 245 -225 298 -51 23 -77 28 -156 31 -81 2 -103 -1
-151 -21z m246 -146 c121 -55 175 -212 115 -331 -79 -153 -292 -179 -403 -49
-104 121 -59 321 88 385 45 20 152 17 200 -5z"/>
</g>
</svg>
