<?xml version="1.0" standalone="no"?>
<!DOCTYPE svg PUBLIC "-//W3C//DTD SVG 20010904//EN"
 "http://www.w3.org/TR/2001/REC-SVG-20010904/DTD/svg10.dtd">
<svg version="1.0" xmlns="http://www.w3.org/2000/svg"
 width="512.000000pt" height="512.000000pt" viewBox="0 0 512.000000 512.000000"
 preserveAspectRatio="xMidYMid meet">

<g transform="translate(0.000000,512.000000) scale(0.100000,-0.100000)"
fill="#000000" stroke="none">
<path d="M2485 4153 c-182 -12 -430 -62 -625 -125 -413 -134 -760 -347 -1071
-657 -420 -421 -677 -936 -765 -1538 -9 -62 -17 -184 -18 -288 -1 -163 1 -185
21 -238 57 -152 168 -263 320 -320 l58 -22 1055 -3 c688 -2 1101 1 1187 8 539
44 1045 245 1473 586 109 87 317 295 404 404 343 431 540 926 587 1478 21 250
2 371 -76 488 -75 113 -196 197 -323 223 -37 8 -377 10 -1115 9 -584 -1 -1084
-3 -1112 -5z m870 -328 c432 -76 747 -472 722 -910 -26 -455 -377 -806 -832
-832 -437 -25 -834 290 -910 722 -105 604 416 1125 1020 1020z m1330 -4 c49
-22 89 -67 106 -118 27 -83 -11 -431 -72 -663 -82 -309 -241 -623 -444 -875
-76 -96 -253 -273 -350 -352 -191 -155 -449 -303 -675 -386 -124 -46 -294 -91
-450 -119 -123 -22 -139 -22 -1215 -26 -778 -2 -1101 0 -1128 8 -52 15 -103
63 -123 116 -14 37 -16 65 -11 168 26 512 207 990 522 1380 85 106 279 298
382 379 179 141 429 281 648 362 116 43 333 100 420 111 l59 7 -48 -54 c-139
-155 -244 -369 -287 -584 -18 -91 -18 -339 0 -430 74 -375 311 -689 649 -859
168 -84 329 -121 532 -121 83 0 175 6 215 14 494 98 868 472 966 966 18 91 18
339 0 430 -44 225 -149 433 -301 598 l-62 67 314 0 c282 0 317 -2 353 -19z"/>
<path d="M3061 3585 c-284 -62 -501 -332 -501 -625 0 -339 283 -633 612 -635
94 0 119 10 162 69 29 39 29 133 0 172 -37 50 -67 65 -149 75 -130 16 -210 68
-266 171 -31 58 -34 70 -33 148 0 100 24 160 89 225 65 65 125 89 225 89 73 0
92 -4 136 -26 75 -39 107 -70 142 -135 22 -41 34 -82 41 -137 15 -121 62 -171
161 -171 63 0 95 16 134 69 30 39 29 174 -2 271 -98 317 -427 510 -751 440z"/>
<path d="M1175 2784 c-387 -85 -621 -491 -501 -869 34 -107 87 -194 167 -274
79 -79 166 -132 274 -168 69 -23 96 -27 205 -27 109 0 136 4 205 27 108 36
195 89 274 168 79 79 132 166 168 274 23 69 27 96 27 205 0 109 -4 136 -27
205 -92 278 -332 459 -622 471 -67 2 -123 -1 -170 -12z m291 -338 c77 -35 145
-103 181 -180 24 -52 28 -74 28 -146 0 -72 -4 -94 -28 -146 -36 -77 -104 -145
-182 -181 -51 -24 -73 -28 -145 -28 -72 0 -94 4 -145 28 -78 36 -146 104 -182
181 -24 52 -28 74 -28 146 0 72 4 94 28 145 86 183 293 263 473 181z"/>
</g>
</svg>
