<?xml version="1.0" encoding="iso-8859-1"?>
<!-- Generator: Adobe Illustrator 19.0.0, SVG Export Plug-In . SVG Version: 6.00 Build 0)  -->
<svg version="1.1" id="Layer_1" xmlns="http://www.w3.org/2000/svg" xmlns:xlink="http://www.w3.org/1999/xlink" x="0px" y="0px"
	 viewBox="0 0 512.014 512.014" style="enable-background:new 0 0 512.014 512.014;" xml:space="preserve">
<g>
	<g>
		<path d="M512.008,18.099L493.909,0l-35.14,35.14c-19.618-11.52-45.252-9.054-62.071,7.765l-45.252,45.252
			c-9.993-9.992-26.206-10.001-36.207,0L206.626,196.77l-27.153-27.153c-9.993-9.992-26.206-10.001-36.207,0l-36.207,36.207
			c-9.992,9.992-9.992,26.206,0,36.207l-54.306,54.306c-9.993,9.993-9.993,26.206,0,36.207l9.054,9.054L7.5,395.904
			c-9.992,9.992-9.992,26.206,0,36.207l72.405,72.405c10.001,10.001,26.206,9.993,36.207,0l54.306-54.306l9.054,9.054
			c10.001,10.001,26.206,9.993,36.207,0l54.306-54.306c10.001,10.001,26.206,9.993,36.207,0l36.207-36.207
			c9.993-10.01,9.993-26.223-0.009-36.215l-27.153-27.153L423.85,196.77c10.001-10.001,10.001-26.206,0-36.207l45.252-45.252
			c16.819-16.819,19.285-42.453,7.765-62.071L512.008,18.099z M242.833,196.77l72.405,72.405l-18.099,18.099l-72.405-72.405
			L242.833,196.77z M98.013,486.4l-72.405-72.405l18.099-18.099l72.405,72.405L98.013,486.4z M134.22,450.193l-72.405-72.405
			l18.099-18.099l72.405,72.405L134.22,450.193z M197.572,441.148L70.86,314.428l54.306-54.306l126.711,126.711L197.572,441.148z
			 M324.292,350.635l-36.207,36.207L125.166,223.923l36.207-36.207L324.292,350.635z M333.337,251.076l-72.405-72.405l18.099-18.099
			l72.405,72.405L333.337,251.076z M369.544,214.878l-72.405-72.405l36.207-36.207l72.405,72.405L369.544,214.878z M451.003,97.212
			l-45.252,45.252l-36.207-36.207l45.252-45.252c10.001-10.001,26.206-10.001,36.207,0
			C461.004,71.006,461.004,87.211,451.003,97.212z"/>
	</g>
</g>
<g>
</g>
<g>
</g>
<g>
</g>
<g>
</g>
<g>
</g>
<g>
</g>
<g>
</g>
<g>
</g>
<g>
</g>
<g>
</g>
<g>
</g>
<g>
</g>
<g>
</g>
<g>
</g>
<g>
</g>
</svg>
