<?xml version="1.0" encoding="iso-8859-1"?>
<!-- Generator: Adobe Illustrator 19.0.0, SVG Export Plug-In . SVG Version: 6.00 Build 0)  -->
<svg version="1.1" id="Layer_1" xmlns="http://www.w3.org/2000/svg" xmlns:xlink="http://www.w3.org/1999/xlink" x="0px" y="0px"
	 viewBox="0 0 512 512" style="enable-background:new 0 0 512 512;" xml:space="preserve">
<path style="fill:#6F6F6F;" d="M437.02,74.98C388.667,26.628,324.381,0,256,0S123.333,26.628,74.98,74.98
	C26.628,123.333,0,187.62,0,256s26.628,132.667,74.98,181.02C123.333,485.372,187.619,512,256,512s132.667-26.628,181.02-74.98
	C485.372,388.667,512,324.38,512,256S485.372,123.333,437.02,74.98z M256,79.273c53.264,0,101.1,23.687,133.528,61.078L256,217.443
	l-133.528-77.092C154.9,102.959,202.736,79.273,256,79.273z M79.273,256c0-20.254,3.435-39.719,9.737-57.855l133.599,77.134v154.27
	C141.073,413.893,79.273,342.034,79.273,256z M289.391,429.549v-154.27l133.6-77.134c6.301,18.136,9.737,37.601,9.737,57.855
	C432.727,342.034,370.927,413.893,289.391,429.549z"/>
<path style="fill:#444444;" d="M437.02,74.98C388.667,26.628,324.381,0,256,0v79.273c53.264,0,101.1,23.687,133.528,61.078
	L256,217.443V512c68.381,0,132.667-26.628,181.02-74.98C485.372,388.667,512,324.38,512,256S485.372,123.333,437.02,74.98z
	 M289.391,429.549v-154.27l133.6-77.134c6.301,18.136,9.737,37.601,9.737,57.855C432.727,342.034,370.927,413.893,289.391,429.549z"
	/>
<path style="fill:#F1F1F1;" d="M256,196.494c-32.81,0-59.506,26.694-59.506,59.506s26.694,59.506,59.506,59.506
	s59.506-26.694,59.506-59.506S288.81,196.494,256,196.494z"/>
<path style="fill:#D7D7D7;" d="M256,196.494c0,12.621,0,85.714,0,119.011c32.81,0,59.506-26.694,59.506-59.506
	S288.81,196.494,256,196.494z"/>
<g>
</g>
<g>
</g>
<g>
</g>
<g>
</g>
<g>
</g>
<g>
</g>
<g>
</g>
<g>
</g>
<g>
</g>
<g>
</g>
<g>
</g>
<g>
</g>
<g>
</g>
<g>
</g>
<g>
</g>
</svg>
