<?xml version="1.0" encoding="iso-8859-1"?>
<!-- Generator: Adobe Illustrator 18.0.0, SVG Export Plug-In . SVG Version: 6.00 Build 0)  -->
<!DOCTYPE svg PUBLIC "-//W3C//DTD SVG 1.1//EN" "http://www.w3.org/Graphics/SVG/1.1/DTD/svg11.dtd">
<svg version="1.1" id="Capa_1" xmlns="http://www.w3.org/2000/svg" xmlns:xlink="http://www.w3.org/1999/xlink" x="0px" y="0px"
	 viewBox="0 0 260.691 260.691" style="enable-background:new 0 0 260.691 260.691;" xml:space="preserve">
<g>
	<path d="M64.216,50.914l-12.962-7.549c-4.112,7.06-6.286,15.133-6.286,23.344h15C59.968,61.146,61.436,55.685,64.216,50.914z"/>
	<path d="M91.407,35.269c1.203,0,2.415,0.068,3.601,0.203l1.694-14.904c-1.746-0.199-3.528-0.299-5.295-0.299
		c-12.772,0-25.114,5.342-33.86,14.655l10.935,10.269C74.491,38.794,82.633,35.269,91.407,35.269z"/>
	<path d="M121.472,57.481l17.748,0c2.898-9.459,10.198-17.087,19.527-20.405l-5.026-14.133
		c-9.679,3.442-17.867,10.035-23.375,18.493c-5.507-8.458-13.695-15.05-23.374-18.493l-5.026,14.133
		C111.274,40.394,118.574,48.022,121.472,57.481z"/>
	<path d="M200.725,66.709h15c0-8.211-2.174-16.284-6.286-23.344l-12.962,7.549C199.256,55.685,200.725,61.146,200.725,66.709z"/>
	<path d="M169.285,35.269c8.774,0,16.916,3.524,22.925,9.924l10.934-10.269c-8.746-9.314-21.088-14.655-33.859-14.655
		c-1.767,0-3.548,0.101-5.295,0.299l1.693,14.904C166.87,35.338,168.082,35.269,169.285,35.269z"/>
	<polygon points="137.846,109.091 122.846,109.091 122.846,145.373 122.846,145.373 122.846,145.373 137.846,145.373 
		137.847,109.092 137.846,109.092 	"/>
	<polygon points="122.846,154.278 122.846,154.278 122.846,174.778 137.846,174.778 137.846,154.278 137.846,154.278 	"/>
	<path d="M258.494,127.293c-32.455-32.456-75.055-51.073-120.647-52.918V63.444h-15.001v10.931
		C77.253,76.219,34.652,94.836,2.197,127.293c-2.93,2.929-2.93,7.678,0,10.606l78.068,78.068c1.406,1.407,3.314,2.197,5.304,2.197
		c1.989,0,3.896-0.79,5.303-2.197c4.989-4.989,10.762-8.902,17.033-11.656l8.355,13.243c-1.209,2.203-1.899,4.73-1.899,7.42
		c0,8.532,6.917,15.448,15.448,15.448c8.532,0,15.448-6.916,15.448-15.448c0-8.532-6.916-15.448-15.448-15.448
		c-0.287,0-0.567,0.027-0.852,0.043l-5.969-9.459c2.421-0.316,4.875-0.492,7.356-0.492c14.912,0,28.931,5.807,39.474,16.35
		c1.406,1.407,3.314,2.197,5.304,2.197c1.989,0,3.896-0.79,5.303-2.197l78.068-78.068c1.407-1.406,2.197-3.314,2.197-5.303
		C260.691,130.607,259.901,128.699,258.494,127.293z M174.848,200.333c-12.562-10.183-28.107-15.716-44.502-15.716
		c-5.45,0-10.802,0.625-15.986,1.815L74.6,123.418c-2.21-3.503-6.842-4.552-10.345-2.341c-3.503,2.21-4.551,6.842-2.341,10.345
		l37.912,60.085c-4.955,2.37-9.649,5.314-13.981,8.826l-67.621-67.62c28.863-26.425,65.527-41.608,104.622-43.333v10.862h0.001v0h15
		V89.38c39.095,1.725,75.758,16.909,104.621,43.333L174.848,200.333z"/>
</g>
<g>
</g>
<g>
</g>
<g>
</g>
<g>
</g>
<g>
</g>
<g>
</g>
<g>
</g>
<g>
</g>
<g>
</g>
<g>
</g>
<g>
</g>
<g>
</g>
<g>
</g>
<g>
</g>
<g>
</g>
</svg>
